<svg width="48" height="48" viewBox="0 0 48 48" fill="none" xmlns="http://www.w3.org/2000/svg">
<rect width="48" height="48" rx="16" fill="#3779E1"/>
<path fill-rule="evenodd" clip-rule="evenodd" d="M26.4728 29.3866C27.5633 29.3866 28.4473 28.5027 28.4473 27.4122C28.4473 26.3218 27.5633 25.4377 26.4728 25.4377C25.8301 25.4377 25.2592 25.7449 24.8986 26.2203H16.3033H11.3215V28.7124H24.9869C25.3488 29.1256 25.8804 29.3866 26.4728 29.3866Z" fill="url(#paint0_linear_964_18366)"/>
<path fill-rule="evenodd" clip-rule="evenodd" d="M17.4095 16.5435C16.2529 15.3686 14.6732 14.707 13.0245 14.707H0V17.199H13.0245C14.0055 17.199 14.9455 17.5927 15.6337 18.2917L19.074 21.7863C20.2306 22.9612 21.8103 23.6228 23.459 23.6228H40.9877C41.3499 24.0527 41.8922 24.3259 42.4984 24.3259C43.5889 24.3259 44.4728 23.4419 44.4728 22.3514C44.4728 21.261 43.5889 20.377 42.4984 20.377C41.8687 20.377 41.3079 20.6718 40.9464 21.1308H23.459C22.478 21.1308 21.538 20.7371 20.8498 20.0381L17.4095 16.5435Z" fill="url(#paint1_linear_964_18366)"/>
<path fill-rule="evenodd" clip-rule="evenodd" d="M25.246 11.7508C26.3364 11.7508 27.2204 10.8668 27.2204 9.77631C27.2204 8.68585 26.3364 7.80188 25.246 7.80188C24.628 7.80188 24.0763 8.08582 23.7142 8.53033H15.1858C13.5536 8.53033 11.9884 9.17877 10.8344 10.3329L6.46094 14.707H9.98492L12.5966 12.0949C13.2833 11.4082 14.2146 11.0223 15.1858 11.0223H23.7143C24.0763 11.4669 24.628 11.7508 25.246 11.7508Z" fill="url(#paint2_linear_964_18366)"/>
<path fill-rule="evenodd" clip-rule="evenodd" d="M22.5226 12.0517L21.4543 11.0223H17.8627L20.7936 13.8463C21.9403 14.9511 23.4706 15.5684 25.063 15.5684H27.7316C28.0928 15.9669 28.6146 16.2172 29.1949 16.2172C30.2853 16.2172 31.1693 15.3333 31.1693 14.2428C31.1693 13.1523 30.2853 12.2684 29.1949 12.2684C28.5408 12.2684 27.961 12.5864 27.6017 13.0764H25.063C24.1155 13.0764 23.205 12.709 22.5226 12.0517Z" fill="url(#paint3_linear_964_18366)"/>
<path fill-rule="evenodd" clip-rule="evenodd" d="M36.5559 18.6517C37.6464 18.6517 38.5303 17.7678 38.5303 16.6773C38.5303 15.5869 37.6464 14.7029 36.5559 14.7029C35.9768 14.7029 35.4558 14.9522 35.0946 15.3494H34.6941C33.416 15.3494 32.1896 15.8544 31.2821 16.7544L26.8689 21.1308H30.408L33.0369 18.5239C33.4777 18.0867 34.0732 17.8414 34.6941 17.8414H34.9609C35.3201 18.3326 35.9008 18.6517 36.5559 18.6517Z" fill="url(#paint4_linear_964_18366)"/>
<path fill-rule="evenodd" clip-rule="evenodd" d="M6.15298 22.4983C4.99459 21.3081 3.40428 20.6367 1.74345 20.6367H0V23.1288H1.74345C2.73167 23.1288 3.67793 23.5282 4.36719 24.2363L6.91197 26.851C8.07036 28.0411 9.66067 28.7124 11.3215 28.7124C13.9814 28.7124 16.5256 29.7999 18.3637 31.7225L20.1405 33.5811C21.3014 34.7953 22.9083 35.4821 24.5882 35.4821H36.1203C36.482 35.9377 37.0407 36.23 37.6677 36.23C38.7582 36.23 39.6422 35.3461 39.6422 34.2556C39.6422 33.1652 38.7582 32.2811 37.6677 32.2811C37.0588 32.2811 36.5143 32.5568 36.1521 32.9901H24.5882C23.5887 32.9901 22.6325 32.5814 21.9418 31.8589L19.826 29.7432C17.5705 27.4875 14.5113 26.2205 11.3215 26.2205C10.3333 26.2205 9.38702 25.8209 8.69776 25.1128L6.15298 22.4983Z" fill="url(#paint5_linear_964_18366)"/>
<path fill-rule="evenodd" clip-rule="evenodd" d="M40.5049 30.9009C41.5953 30.9009 42.4792 30.017 42.4792 28.9265C42.4792 27.8361 41.5953 26.952 40.5049 26.952C39.8995 26.952 39.3578 27.2245 38.9956 27.6534H38.8666C37.1143 27.6534 35.4452 28.4005 34.2777 29.7072L31.3448 32.9901H34.6865L36.1361 31.3674C36.8308 30.59 37.824 30.1455 38.8666 30.1455H38.9515C39.313 30.6055 39.8745 30.9009 40.5049 30.9009Z" fill="url(#paint6_linear_964_18366)"/>
<path fill-rule="evenodd" clip-rule="evenodd" d="M32.5413 36.79L31.4413 35.4821H28.1851L30.634 38.394C31.274 39.1549 32.2175 39.5942 33.2118 39.5942H33.9266C34.2844 39.9552 34.7806 40.1788 35.3291 40.1788C36.4196 40.1788 37.3035 39.2949 37.3035 38.2045C37.3035 37.114 36.4196 36.23 35.3291 36.23C34.6469 36.23 34.0454 36.576 33.6907 37.1023H33.2118C32.9531 37.1023 32.7078 36.9879 32.5413 36.79Z" fill="url(#paint7_linear_964_18366)"/>
<defs>
<linearGradient id="paint0_linear_964_18366" x1="28.1152" y1="26.5395" x2="16.2569" y2="28.965" gradientUnits="userSpaceOnUse">
<stop offset="0.530553" stop-color="white"/>
<stop offset="1" stop-color="white" stop-opacity="0.4"/>
</linearGradient>
<linearGradient id="paint1_linear_964_18366" x1="43.524" y1="21.9009" x2="1.16281" y2="23.8438" gradientUnits="userSpaceOnUse">
<stop offset="0.69683" stop-color="white"/>
<stop offset="1" stop-color="white" stop-opacity="0"/>
</linearGradient>
<linearGradient id="paint2_linear_964_18366" x1="26.8179" y1="9.7284" x2="6.92082" y2="13.8635" gradientUnits="userSpaceOnUse">
<stop offset="0.69683" stop-color="white"/>
<stop offset="1" stop-color="white" stop-opacity="0.4"/>
</linearGradient>
<linearGradient id="paint3_linear_964_18366" x1="29.8275" y1="16.2172" x2="20.0945" y2="10.1126" gradientUnits="userSpaceOnUse">
<stop offset="0.624582" stop-color="white"/>
<stop offset="1" stop-color="white" stop-opacity="0.4"/>
</linearGradient>
<linearGradient id="paint4_linear_964_18366" x1="38.1373" y1="15.6038" x2="26.6046" y2="17.9224" gradientUnits="userSpaceOnUse">
<stop offset="0.527344" stop-color="white"/>
<stop offset="1" stop-color="white" stop-opacity="0.4"/>
</linearGradient>
<linearGradient id="paint5_linear_964_18366" x1="38.262" y1="34.0255" x2="2.77122" y2="18.8515" gradientUnits="userSpaceOnUse">
<stop offset="0.69683" stop-color="white"/>
<stop offset="1" stop-color="white" stop-opacity="0"/>
</linearGradient>
<linearGradient id="paint6_linear_964_18366" x1="41.5016" y1="27.3929" x2="30.981" y2="30.1385" gradientUnits="userSpaceOnUse">
<stop offset="0.37659" stop-color="white"/>
<stop offset="1" stop-color="white" stop-opacity="0.4"/>
</linearGradient>
<linearGradient id="paint7_linear_964_18366" x1="36.7859" y1="39.5846" x2="30.5586" y2="34.124" gradientUnits="userSpaceOnUse">
<stop offset="0.417312" stop-color="white"/>
<stop offset="1" stop-color="white" stop-opacity="0.4"/>
</linearGradient>
</defs>
</svg>
