<svg width="33" height="24" viewBox="0 0 33 24" fill="none" xmlns="http://www.w3.org/2000/svg">
<path fill-rule="evenodd" clip-rule="evenodd" d="M19.6234 16C20.4317 16 21.087 15.3447 21.087 14.5364C21.087 13.7281 20.4317 13.0728 19.6234 13.0728C19.1469 13.0728 18.7236 13.3005 18.4564 13.653H12.0851H8.39221V15.5003L18.522 15.5003C18.7902 15.8066 19.1842 16 19.6234 16Z" fill="url(#paint0_linear_964_18537)"/>
<path fill-rule="evenodd" clip-rule="evenodd" d="M12.9051 6.47985C12.0477 5.60896 10.8768 5.11854 9.65465 5.11854H0V6.96579H9.65465C10.3818 6.96579 11.0786 7.25759 11.5887 7.77579L14.1389 10.3662C14.9963 11.2371 16.1673 11.7275 17.3894 11.7275H30.3828C30.6513 12.0462 31.0533 12.2487 31.5027 12.2487C32.311 12.2487 32.9663 11.5934 32.9663 10.7851C32.9663 9.97677 32.311 9.3215 31.5027 9.3215C31.0359 9.3215 30.6202 9.53999 30.3522 9.88026H17.3894C16.6622 9.88026 15.9654 9.58846 15.4553 9.07026L12.9051 6.47985Z" fill="url(#paint1_linear_964_18537)"/>
<path fill-rule="evenodd" clip-rule="evenodd" d="M18.714 2.92718C19.5224 2.92718 20.1776 2.27191 20.1776 1.46359C20.1776 0.655271 19.5224 0 18.714 0C18.2559 0 17.847 0.21046 17.5786 0.539964H11.2567C10.0469 0.539964 8.88662 1.02062 8.0312 1.87617L4.78931 5.11854H7.40152L9.3375 3.18227C9.84649 2.67321 10.5369 2.38721 11.2567 2.38721H17.5786C17.847 2.71672 18.2559 2.92718 18.714 2.92718Z" fill="url(#paint2_linear_964_18537)"/>
<path fill-rule="evenodd" clip-rule="evenodd" d="M16.6952 3.15022L15.9033 2.38721H13.241L15.4135 4.48048C16.2636 5.29947 17.398 5.75704 18.5783 5.75704H20.5565C20.8242 6.05247 21.211 6.23802 21.6412 6.23802C22.4495 6.23802 23.1048 5.58275 23.1048 4.77443C23.1048 3.96611 22.4495 3.31084 21.6412 3.31084C21.1563 3.31084 20.7265 3.54663 20.4602 3.9098H18.5783C17.876 3.9098 17.201 3.63753 16.6952 3.15022Z" fill="url(#paint3_linear_964_18537)"/>
<path fill-rule="evenodd" clip-rule="evenodd" d="M27.0977 8.04263C27.906 8.04263 28.5613 7.38736 28.5613 6.57904C28.5613 5.77072 27.906 5.11545 27.0977 5.11545C26.6684 5.11545 26.2823 5.30029 26.0145 5.59471H25.7175C24.7701 5.59471 23.8611 5.96903 23.1883 6.63615L19.917 9.88026H22.5404L24.4891 7.9478C24.8158 7.62377 25.2574 7.44196 25.7175 7.44196H25.9154C26.1817 7.8061 26.6121 8.04263 27.0977 8.04263Z" fill="url(#paint4_linear_964_18537)"/>
<path fill-rule="evenodd" clip-rule="evenodd" d="M4.561 10.8939C3.70232 10.0116 2.52348 9.51397 1.29236 9.51397H0V11.3612H1.29236C2.0249 11.3612 2.72633 11.6573 3.23725 12.1823L5.12361 14.1204C5.98229 15.0026 7.16113 15.5003 8.39225 15.5003C10.3639 15.5003 12.2499 16.3064 13.6124 17.7315L14.9295 19.1092C15.7901 20.0092 16.9812 20.5184 18.2265 20.5184H26.7748C27.0429 20.8562 27.4571 21.0728 27.9219 21.0728C28.7302 21.0728 29.3854 20.4176 29.3854 19.6092C29.3854 18.8009 28.7302 18.1456 27.9219 18.1456C27.4705 18.1456 27.0669 18.35 26.7984 18.6711H18.2265C17.4855 18.6711 16.7768 18.3682 16.2647 17.8326L14.6964 16.2642C13.0244 14.5923 10.7568 13.653 8.39225 13.653C7.65972 13.653 6.95829 13.3569 6.44736 12.832L4.561 10.8939Z" fill="url(#paint5_linear_964_18537)"/>
<path fill-rule="evenodd" clip-rule="evenodd" d="M30.0249 17.1226C30.8332 17.1226 31.4885 16.4673 31.4885 15.659C31.4885 14.8507 30.8332 14.1954 30.0249 14.1954C29.5762 14.1954 29.1746 14.3973 28.9062 14.7152H28.8106C27.5117 14.7152 26.2744 15.269 25.409 16.2376L23.235 18.6711H25.712L26.7866 17.4683C27.3015 16.892 28.0377 16.5625 28.8106 16.5625H28.8734C29.1414 16.9035 29.5576 17.1226 30.0249 17.1226Z" fill="url(#paint6_linear_964_18537)"/>
<path fill-rule="evenodd" clip-rule="evenodd" d="M24.1218 21.4879L23.3064 20.5184H20.8927L22.7081 22.6769C23.1825 23.241 23.8818 23.5666 24.6189 23.5666H25.1487C25.4139 23.8342 25.7817 24 26.1883 24C26.9966 24 27.6519 23.3447 27.6519 22.5364C27.6519 21.7281 26.9966 21.0728 26.1883 21.0728C25.6825 21.0728 25.2367 21.3293 24.9738 21.7194H24.6189C24.4271 21.7194 24.2452 21.6347 24.1218 21.4879Z" fill="url(#paint7_linear_964_18537)"/>
<defs>
<linearGradient id="paint0_linear_964_18537" x1="20.8408" y1="13.8895" x2="12.0507" y2="15.6874" gradientUnits="userSpaceOnUse">
<stop offset="0.530553" stop-color="#3779E1"/>
<stop offset="1" stop-color="#3779E1" stop-opacity="0.4"/>
</linearGradient>
<linearGradient id="paint1_linear_964_18537" x1="32.2416" y1="11.2966" x2="0.665979" y2="11.3295" gradientUnits="userSpaceOnUse">
<stop offset="0.69683" stop-color="#3779E1"/>
<stop offset="1" stop-color="#3779E1" stop-opacity="0"/>
</linearGradient>
<linearGradient id="paint2_linear_964_18537" x1="19.8792" y1="1.42806" x2="5.13021" y2="4.49332" gradientUnits="userSpaceOnUse">
<stop offset="0.69683" stop-color="#3779E1"/>
<stop offset="1" stop-color="#3779E1" stop-opacity="0.4"/>
</linearGradient>
<linearGradient id="paint3_linear_964_18537" x1="22.1101" y1="6.23801" x2="14.8954" y2="1.71288" gradientUnits="userSpaceOnUse">
<stop offset="0.624582" stop-color="#3779E1"/>
<stop offset="1" stop-color="#3779E1" stop-opacity="0.4"/>
</linearGradient>
<linearGradient id="paint4_linear_964_18537" x1="28.27" y1="5.7833" x2="19.7211" y2="7.50203" gradientUnits="userSpaceOnUse">
<stop offset="0.527344" stop-color="#3779E1"/>
<stop offset="1" stop-color="#3779E1" stop-opacity="0.4"/>
</linearGradient>
<linearGradient id="paint5_linear_964_18537" x1="28.1705" y1="21.0728" x2="1.97714" y2="8.12375" gradientUnits="userSpaceOnUse">
<stop offset="0.69683" stop-color="#3779E1"/>
<stop offset="1" stop-color="#3779E1" stop-opacity="0"/>
</linearGradient>
<linearGradient id="paint6_linear_964_18537" x1="30.7638" y1="14.5222" x2="22.9653" y2="16.5574" gradientUnits="userSpaceOnUse">
<stop offset="0.37659" stop-color="#3779E1"/>
<stop offset="1" stop-color="#3779E1" stop-opacity="0.4"/>
</linearGradient>
<linearGradient id="paint7_linear_964_18537" x1="27.2682" y1="23.5595" x2="22.652" y2="19.5117" gradientUnits="userSpaceOnUse">
<stop offset="0.417312" stop-color="#3779E1"/>
<stop offset="1" stop-color="#3779E1" stop-opacity="0.4"/>
</linearGradient>
</defs>
</svg>
